<svg id="Layer_1" data-name="Layer 1" xmlns="http://www.w3.org/2000/svg" viewBox="0 0 1224.31 268.33">
  <title>Artboard 1</title>
  <path d="M240,211c10.78,0,41-2.05,50.59-6.15a80.18,80.18,0,0,0,42.36-42.19,76.8,76.8,0,0,0,6.16-30.77V0h57.31V131.85A133.27,133.27,0,0,1,385.67,185a136,136,0,0,1-72.61,72.6c-16.65,7.15-54.34,10.73-73.09,10.73Z" fill="#fff"/>
  <path d="M613.32,268.33l2.1-105.48V.05H783.14V57.37h-110v48.17h78l-.28,56.07h-78v49l110.28.41v57.31Z" fill="#fff"/>
  <g>
    <path d="M611,268.28H543.85L465.8,138.18v130.1H408.49V0h102a90.5,90.5,0,0,1,35.87,7.21,92.64,92.64,0,0,1,49.4,49.4,90.41,90.41,0,0,1,7.2,35.86A91.2,91.2,0,0,1,599.41,118a95.74,95.74,0,0,1-9.85,22.68,88.53,88.53,0,0,1-15.29,19A96.71,96.71,0,0,1,554.4,174ZM510.45,127.63a34.8,34.8,0,0,0,35.16-35.16,34.81,34.81,0,0,0-35.16-35.16H465.8v70.32Z" fill="#fff"/>
    <polygon points="452.32 127.59 442.3 127.56 465.8 165.22 465.8 149.25 465.81 139 470.22 127.63 452.32 127.59" fill="#231f20" opacity="0.1"/>
  </g>
  <polygon points="458.64 127.59 477.01 156.76 477.01 127.61 458.64 127.59" fill="#fff"/>
  <g>
    <polygon points="1090 129.04 955.33 0 955.33 248.09 965.47 268.27 1012.65 268.27 1012.65 134.31 1090 208.5 1167 134.66 1167 268.27 1224.31 268.27 1224.31 0 1090 129.04" fill="#fff"/>
    <polygon points="955.33 108.35 955.33 248.09 965.47 268.27 1012.64 268.27 1012.64 222.51 955.33 108.35" opacity="0.1"/>
  </g>
  <path d="M750.72,268.33,886.09.05l134.66,268.28H956.41l-70.32-141-71,141Z" fill="#fff"/>
  <g>
    <polygon points="204.89 72.54 137.52 5.17 102.44 40.25 169.81 107.62 137.52 139.9 172.61 174.98 204.89 142.7 239.97 107.62 204.89 72.54" fill="#fff"/>
    <polygon points="169.81 107.62 225.12 107.62 137.52 139.9 169.81 107.62" fill="#231f20" opacity="0.05"/>
    <polygon points="225.12 107.62 102.44 40.25 169.81 107.62 225.12 107.62" fill="#231f20" opacity="0.02"/>
  </g>
  <g>
    <polygon points="35.08 177.78 102.44 245.14 137.52 210.06 70.16 142.7 102.44 110.41 67.36 75.33 35.08 107.61 0 142.7 35.08 177.78" fill="#89c540"/>
    <polygon points="70.16 142.7 14.85 142.7 102.44 110.41 70.16 142.7" fill="#231f20" opacity="0.05"/>
    <polygon points="14.85 142.7 137.52 210.06 70.16 142.7 14.85 142.7" fill="#231f20" opacity="0.02"/>
  </g>
</svg>
